<svg xmlns="http://www.w3.org/2000/svg" viewBox="0 0 1060 760" width="1060" height="760" font-family="Georgia, serif">
  <rect width="1060" height="760" fill="#fafaf8"/>

  <defs>
    <marker id="arr" markerWidth="7" markerHeight="7" refX="5" refY="3" orient="auto">
      <path d="M0,0 L0,6 L7,3 z" fill="#888"/>
    </marker>
    <marker id="arrl" markerWidth="7" markerHeight="7" refX="5" refY="3" orient="auto">
      <path d="M0,0 L0,6 L7,3 z" fill="#bbb"/>
    </marker>
    <marker id="arrl-rev" markerWidth="7" markerHeight="7" refX="2" refY="3" orient="auto-start-reverse">
      <path d="M0,0 L0,6 L7,3 z" fill="#bbb"/>
    </marker>
  </defs>

  <!-- ── TERMINAL (left, big rect) ── -->
  <rect x="20" y="120" width="185" height="235" rx="6" fill="#f2f2f0" stroke="#888" stroke-width="2"/>
  <text x="112" y="144" text-anchor="middle" font-size="14" fill="#333" font-weight="bold">Terminal</text>

  <!-- Terminal → Venv -->
  <line x1="112" y1="355" x2="80" y2="374" stroke="#888" stroke-width="1.5" marker-end="url(#arr)"/>
  <rect x="20" y="374" width="100" height="32" rx="4" fill="#eef3fb" stroke="#6b8ec4" stroke-width="1.5"/>
  <text x="70" y="395" text-anchor="middle" font-size="12" fill="#3a5a8c">Venv</text>

  <!-- ── DRONES ── -->
  <ellipse cx="350" cy="195" rx="34" ry="22" fill="#eef3fb" stroke="#6b8ec4" stroke-width="1.5"/>
  <text x="350" y="199" text-anchor="middle" font-size="10" fill="#3a5a8c">drone</text>

  <ellipse cx="435" cy="185" rx="34" ry="22" fill="#eef3fb" stroke="#6b8ec4" stroke-width="1.5"/>
  <text x="435" y="189" text-anchor="middle" font-size="10" fill="#3a5a8c">drone</text>

  <ellipse cx="515" cy="180" rx="34" ry="22" fill="#eef3fb" stroke="#6b8ec4" stroke-width="1.5"/>
  <text x="515" y="184" text-anchor="middle" font-size="10" fill="#3a5a8c">drone</text>

  <ellipse cx="595" cy="185" rx="34" ry="22" fill="#eef3fb" stroke="#6b8ec4" stroke-width="1.5"/>
  <text x="595" y="189" text-anchor="middle" font-size="10" fill="#3a5a8c">drone</text>

  <ellipse cx="675" cy="195" rx="34" ry="22" fill="#eef3fb" stroke="#6b8ec4" stroke-width="1.5"/>
  <text x="675" y="199" text-anchor="middle" font-size="10" fill="#3a5a8c">drone</text>

  <!-- Drones → Terminal -->
  <line x1="316" y1="197" x2="205" y2="220" stroke="#888" stroke-width="1.5" marker-end="url(#arr)"/>
  <line x1="401" y1="195" x2="205" y2="248" stroke="#888" stroke-width="1.5" marker-end="url(#arr)"/>
  <line x1="481" y1="193" x2="205" y2="275" stroke="#888" stroke-width="1.5" marker-end="url(#arr)"/>
  <line x1="561" y1="195" x2="205" y2="302" stroke="#888" stroke-width="1.5" marker-end="url(#arr)"/>
  <line x1="641" y1="202" x2="205" y2="326" stroke="#888" stroke-width="1.5" marker-end="url(#arr)"/>

  <!-- ── COLLECTIVE MIND ── -->
  <ellipse cx="395" cy="530" rx="185" ry="58" fill="#fdf6e3" stroke="#c9a84c" stroke-width="2"/>
  <text x="395" y="536" text-anchor="middle" font-size="16" fill="#7a5c10" font-style="italic">Collective Mind</text>

  <!-- Drones ↔ Collective Mind -->
  <line x1="350" y1="217" x2="328" y2="474" stroke="#bbb" stroke-width="1.5" marker-end="url(#arrl)" marker-start="url(#arrl-rev)"/>
  <line x1="435" y1="207" x2="383" y2="474" stroke="#bbb" stroke-width="1.5" marker-end="url(#arrl)" marker-start="url(#arrl-rev)"/>
  <line x1="515" y1="202" x2="420" y2="474" stroke="#bbb" stroke-width="1.5" marker-end="url(#arrl)" marker-start="url(#arrl-rev)"/>
  <line x1="595" y1="207" x2="462" y2="474" stroke="#bbb" stroke-width="1.5" marker-end="url(#arrl)" marker-start="url(#arrl-rev)"/>
  <line x1="675" y1="217" x2="506" y2="476" stroke="#bbb" stroke-width="1.5" marker-end="url(#arrl)" marker-start="url(#arrl-rev)"/>

  <!-- Sub-components below Collective Mind -->
  <rect x="152" y="606" width="74" height="32" rx="4" fill="white" stroke="#999" stroke-width="1.5"/>
  <text x="189" y="627" text-anchor="middle" font-size="11" fill="#333">Skills</text>
  <line x1="189" y1="606" x2="285" y2="588" stroke="#ddd" stroke-width="1"/>

  <rect x="234" y="606" width="105" height="32" rx="4" fill="white" stroke="#999" stroke-width="1.5"/>
  <text x="286" y="620" text-anchor="middle" font-size="10" fill="#333">Tool registry</text>
  <text x="286" y="633" text-anchor="middle" font-size="9" fill="#888">(starts empty)</text>
  <line x1="286" y1="606" x2="350" y2="588" stroke="#ddd" stroke-width="1"/>

  <rect x="347" y="606" width="74" height="32" rx="4" fill="white" stroke="#999" stroke-width="1.5"/>
  <text x="384" y="627" text-anchor="middle" font-size="11" fill="#333">Findings</text>
  <line x1="384" y1="606" x2="395" y2="588" stroke="#ddd" stroke-width="1"/>

  <rect x="429" y="606" width="94" height="32" rx="4" fill="white" stroke="#999" stroke-width="1.5"/>
  <text x="476" y="627" text-anchor="middle" font-size="11" fill="#333">User uploads</text>
  <line x1="476" y1="606" x2="455" y2="588" stroke="#ddd" stroke-width="1"/>

  <!-- ── ZOOM CONNECTOR: CM right edge → gaps panel ── -->
  <!-- CM right edge at ~(580, 530). Panel at x=615, y=450–670 -->
  <line x1="578" y1="510" x2="615" y2="453" stroke="#c9a84c" stroke-width="1.2" stroke-dasharray="5,3"/>
  <line x1="578" y1="550" x2="615" y2="668" stroke="#c9a84c" stroke-width="1.2" stroke-dasharray="5,3"/>

  <!-- ── GAPS PANEL (zoom-in of Collective Mind's gaps) ── -->
  <rect x="615" y="450" width="420" height="220" rx="6" fill="white" stroke="#c9a84c" stroke-width="1.5" stroke-dasharray="6,3" fill-opacity="0.6"/>
  <text x="633" y="469" font-size="10" fill="#c9a84c" font-style="italic">gaps (in Collective Mind)</text>

  <!-- Row 1 -->
  <!-- Alignment -->
  <rect x="626" y="476" width="84" height="38" rx="3" fill="white" stroke="#aaa" stroke-width="1.5"/>
  <text x="668" y="500" text-anchor="middle" font-size="11" fill="#333">Alignment</text>
  <!-- Testing -->
  <rect x="715" y="476" width="70" height="38" rx="3" fill="white" stroke="#aaa" stroke-width="1.5"/>
  <text x="750" y="500" text-anchor="middle" font-size="11" fill="#333">Testing</text>
  <!-- Decomposition -->
  <rect x="790" y="476" width="100" height="38" rx="3" fill="white" stroke="#aaa" stroke-width="1.5"/>
  <text x="840" y="500" text-anchor="middle" font-size="11" fill="#333">Decomp.</text>
  <!-- blank x3 -->
  <rect x="895" y="476" width="38" height="38" rx="3" fill="#f6f6f4" stroke="#ddd" stroke-width="1"/>
  <rect x="938" y="476" width="38" height="38" rx="3" fill="#f6f6f4" stroke="#ddd" stroke-width="1"/>
  <rect x="981" y="476" width="30" height="38" rx="3" fill="#f6f6f4" stroke="#ddd" stroke-width="1" stroke-dasharray="3,2"/>

  <!-- Row 2 -->
  <!-- Alignment -->
  <rect x="626" y="524" width="78" height="38" rx="3" fill="white" stroke="#aaa" stroke-width="1.5"/>
  <text x="665" y="548" text-anchor="middle" font-size="11" fill="#333">Alignment</text>
  <!-- Memory mgmt -->
  <rect x="709" y="524" width="114" height="38" rx="3" fill="white" stroke="#aaa" stroke-width="1.5"/>
  <text x="766" y="538" text-anchor="middle" font-size="10" fill="#333">Memory mgmt</text>
  <text x="766" y="553" text-anchor="middle" font-size="9" fill="#888">(clean, del…)</text>
  <!-- blank x5 -->
  <rect x="828" y="524" width="38" height="38" rx="3" fill="#f6f6f4" stroke="#ddd" stroke-width="1"/>
  <rect x="871" y="524" width="38" height="38" rx="3" fill="#f6f6f4" stroke="#ddd" stroke-width="1"/>
  <rect x="914" y="524" width="38" height="38" rx="3" fill="#f6f6f4" stroke="#ddd" stroke-width="1"/>
  <rect x="957" y="524" width="38" height="38" rx="3" fill="#f6f6f4" stroke="#ddd" stroke-width="1"/>
  <rect x="1000" y="524" width="24" height="38" rx="3" fill="#f6f6f4" stroke="#ddd" stroke-width="1" stroke-dasharray="3,2"/>

  <!-- Row 3 (all blank, suggesting more) -->
  <rect x="626" y="572" width="38" height="28" rx="3" fill="#f6f6f4" stroke="#ddd" stroke-width="1"/>
  <rect x="669" y="572" width="38" height="28" rx="3" fill="#f6f6f4" stroke="#ddd" stroke-width="1"/>
  <rect x="712" y="572" width="38" height="28" rx="3" fill="#f6f6f4" stroke="#ddd" stroke-width="1"/>
  <rect x="755" y="572" width="38" height="28" rx="3" fill="#f6f6f4" stroke="#ddd" stroke-width="1"/>
  <rect x="798" y="572" width="38" height="28" rx="3" fill="#f6f6f4" stroke="#ddd" stroke-width="1"/>
  <rect x="841" y="572" width="38" height="28" rx="3" fill="#f6f6f4" stroke="#ddd" stroke-width="1"/>
  <rect x="884" y="572" width="38" height="28" rx="3" fill="#f6f6f4" stroke="#ddd" stroke-width="1"/>
  <rect x="927" y="572" width="38" height="28" rx="3" fill="#f6f6f4" stroke="#ddd" stroke-width="1" stroke-dasharray="3,2"/>
  <text x="985" y="591" text-anchor="middle" font-size="14" fill="#bbb">…</text>

  <!-- Row 4 label -->
  <text x="626" y="618" font-size="9" fill="#bbb" font-style="italic">anonymous gaps</text>

  <!-- ── USER ── -->
  <circle cx="55" cy="560" r="12" fill="none" stroke="#777" stroke-width="1.5"/>
  <line x1="55" y1="572" x2="55" y2="602" stroke="#777" stroke-width="1.5"/>
  <line x1="55" y1="582" x2="41" y2="594" stroke="#777" stroke-width="1.5"/>
  <line x1="55" y1="582" x2="69" y2="594" stroke="#777" stroke-width="1.5"/>
  <line x1="55" y1="602" x2="43" y2="616" stroke="#777" stroke-width="1.5"/>
  <line x1="55" y1="602" x2="67" y2="616" stroke="#777" stroke-width="1.5"/>
  <line x1="71" y1="573" x2="208" y2="530" stroke="#999" stroke-width="1.5" stroke-dasharray="5,3" marker-end="url(#arr)"/>
  <text x="130" y="558" font-size="10" fill="#888" transform="rotate(-15,130,558)">goal</text>

</svg>
